<svg version="1.2" xmlns="http://www.w3.org/2000/svg" xmlns:xlink="http://www.w3.org/1999/xlink" overflow="visible" preserveAspectRatio="none" viewBox="-8.991 0 54 54" width="20" height="20"><g>
	<g>
		<path d="M0,0v53.4l4.5-3.9l4.1,3.6l3.4-3.5l3.5,3.5l3.5-3.5l3.5,3.5l3.4-3.5l3.4,3.5l3.2-3.5L36,54V0H0z M34,48.5l-1.5-1.8    l-3.3,3.6l-3.4-3.5l-3.4,3.5L19,46.8l-3.5,3.5L12,46.8l-3.5,3.6l-3.9-3.5L2,49.1V2h32V48.5z M6,7H4v2h2V7z M10,7H8v2h2V7z M14,7    h-2v2h2V7z M18,7h-2v2h2V7z M22,7h-2v2h2V7z M26,7h-2v2h2V7z M30,7h-2v2h2V7z M33,7h-1v2h1V7z M5,16c0,0.6,0.4,1,1,1h5    c0.6,0,1-0.4,1-1c0-0.6-0.4-1-1-1H6C5.4,15,5,15.5,5,16z M5,21c0,0.6,0.4,1,1,1h14c0.6,0,1-0.4,1-1s-0.4-1-1-1H6    C5.4,20,5,20.5,5,21z M25,22h5c0.6,0,1-0.4,1-1s-0.4-1-1-1h-5c-0.6,0-1,0.4-1,1S24.4,22,25,22z M20,25H6c-0.6,0-1,0.4-1,1    c0,0.6,0.4,1,1,1h14c0.6,0,1-0.4,1-1C21,25.5,20.6,25,20,25z M25,27h5c0.6,0,1-0.4,1-1c0-0.6-0.4-1-1-1h-5c-0.6,0-1,0.4-1,1    C24,26.6,24.4,27,25,27z M20,30H6c-0.6,0-1,0.4-1,1c0,0.6,0.4,1,1,1h14c0.6,0,1-0.4,1-1C21,30.5,20.6,30,20,30z M25,32h5    c0.6,0,1-0.4,1-1c0-0.6-0.4-1-1-1h-5c-0.6,0-1,0.4-1,1C24,31.6,24.4,32,25,32z M20,35H6c-0.6,0-1,0.4-1,1c0,0.6,0.4,1,1,1h14    c0.6,0,1-0.4,1-1C21,35.5,20.6,35,20,35z M25,37h5c0.6,0,1-0.4,1-1c0-0.6-0.4-1-1-1h-5c-0.6,0-1,0.4-1,1C24,36.6,24.4,37,25,37z     M20,40H6c-0.6,0-1,0.4-1,1s0.4,1,1,1h14c0.6,0,1-0.4,1-1S20.6,40,20,40z M25,42h5c0.6,0,1-0.4,1-1s-0.4-1-1-1h-5    c-0.6,0-1,0.4-1,1S24.4,42,25,42z" style="fill: rgb(93, 93, 93);" vector-effect="non-scaling-stroke"/>
	</g>
</g><g/></svg>