<svg width="24" height="24" viewBox="0 0 24 24" fill="none" xmlns="http://www.w3.org/2000/svg">
<path d="M10.3637 12.1856C11.7194 12.1856 12.8183 11.1133 12.8183 9.79044C12.8183 8.46762 11.7194 7.39526 10.3637 7.39526C9.00812 7.39526 7.90918 8.46762 7.90918 9.79044C7.90918 11.1133 9.00812 12.1856 10.3637 12.1856Z" fill="#84BD00"/>
<path d="M17.7274 12.9839V6.59679C17.7274 5.71855 16.991 5 16.091 5H4.63638C3.73637 5 3 5.71855 3 6.59679V12.9839C3 13.8622 3.73637 14.5807 4.63638 14.5807H16.091C16.991 14.5807 17.7274 13.8622 17.7274 12.9839ZM4.63638 6.59679C8.44095 6.79638 12.2455 6.79638 16.091 6.59679C15.8455 8.71253 15.8455 10.8283 16.091 12.9839C12.2046 12.7444 8.40004 12.7444 4.63638 12.9839C4.84092 10.8682 4.84092 8.71253 4.63638 6.59679Z" fill="#84BD00"/>
<path d="M19.3633 7.39526V16.1776H5.4541V17.7744H19.3633C20.2633 17.7744 20.9997 17.0558 20.9997 16.1776V7.39526H19.3633Z" fill="#84BD00"/>
</svg>
