<svg version="1.2" xmlns="http://www.w3.org/2000/svg" xmlns:xlink="http://www.w3.org/1999/xlink" overflow="visible" preserveAspectRatio="none" viewBox="-2.5109999999999992 0 54 54" width="16" height="16"><g>
	<g>
		<path d="M9,21.5H4.8v9.7h2v-3.5h2c1.1,0,1.9-0.2,2.4-0.7c0.6-0.5,0.9-1.3,0.9-2.4c0-1-0.3-1.8-0.9-2.3C10.7,21.8,9.9,21.5,9,21.5z     M9.7,25.7c-0.3,0.2-0.6,0.3-1.1,0.3H6.8v-2.9h1.8c0.5,0,0.8,0.1,1.1,0.3c0.3,0.2,0.4,0.6,0.4,1.1C10.1,25.1,10,25.5,9.7,25.7z     M21.1,23c-0.4-0.6-1-1-1.7-1.2c-0.4-0.1-0.9-0.2-1.5-0.2h-4.2v9.7h4.2c1.5,0,2.6-0.6,3.3-1.8c0.5-0.9,0.8-2,0.8-3.3    c0-0.5-0.1-1-0.2-1.6C21.7,24,21.4,23.5,21.1,23z M19.6,28.1c-0.4,0.9-1,1.4-2,1.4h-1.9v-6.3h1.9c0.9,0,1.5,0.3,1.9,0.8    c0.3,0.5,0.5,1.3,0.5,2.3C19.9,27,19.8,27.6,19.6,28.1z M29.8,25.5h-4.3v-2.2h4.9v-1.7h-6.9v9.7h2v-4.1h4.3V25.5z M33.6,0H14    c-2.8,0-5,2.2-5,5v11H5c-2.8,0-5,2.2-5,5v11c0,2.8,2.2,5,5,5h4v12c0,2.8,2.2,5,5,5h30c2.8,0,5-2.2,5-5V15.4L33.6,0z M34,3.2    L45.8,15H37c-1.7,0-3-1.3-3-3V3.2z M5,35c-1.7,0-3-1.3-3-3V21c0-1.7,1.3-3,3-3h24c1.7,0,3,1.3,3,3v11c0,1.7-1.3,3-3,3H5z M47,49    c0,1.7-1.3,3-3,3H14c-1.7,0-3-1.3-3-3V37h18c2.8,0,5-2.2,5-5V21c0-2.8-2.2-5-5-5H11V5c0-1.7,1.3-3,3-3h18v10c0,2.8,2.2,5,5,5h10    V49z" style="fill: rgb(0, 106, 82);" vector-effect="non-scaling-stroke"/>
	</g>
</g><g/></svg>