<svg width="40" height="27" viewBox="0 0 40 27" fill="none" xmlns="http://www.w3.org/2000/svg">
<path fill-rule="evenodd" clip-rule="evenodd" d="M31.3794 26.6451C31.8185 27.1034 32.5211 27.133 32.9749 26.6451C33.4431 26.1573 33.414 25.4921 32.9749 25.0339L8.5035 0.332592C8.0644 -0.110864 7.3326 -0.110864 6.89354 0.332592C6.4691 0.761275 6.4691 1.51519 6.89354 1.94388L31.3794 26.6451ZM20.0074 1.17518C17.4607 1.17518 15.1482 1.61867 12.9967 2.34298L14.9287 4.27947C16.5386 3.79166 18.1925 3.51081 20.0074 3.51081C29.6378 3.51081 37.4387 12.0846 37.4387 13.8436C37.4387 15.041 34.8774 18.2635 30.8233 20.7766L32.6236 22.5948C37.2486 19.5644 40 15.5879 40 13.8436C40 10.8133 31.8332 1.17518 20.0074 1.17518ZM27.4863 25.2408C25.2177 26.0243 22.7296 26.5121 20.0074 26.5121C8.32784 26.5121 0 16.8592 0 13.8436C0 12.055 2.89792 7.96027 7.7717 4.91511L9.58656 6.74812C5.26895 9.3646 2.5613 12.8089 2.5613 13.8436C2.5613 15.928 10.3622 24.1765 20.0074 24.1765C21.9832 24.1765 23.8273 23.8513 25.569 23.3043L27.4863 25.2408ZM27.5156 17.081C27.9692 16.0906 28.2183 14.9819 28.2183 13.8436C28.2183 9.21677 24.5591 5.56555 20.0074 5.56555C18.8511 5.56555 17.7681 5.81682 16.7874 6.24554L27.5156 17.081ZM23.5932 21.2644C22.5101 21.7965 21.2953 22.1217 20.0074 22.1217C15.4263 22.1217 11.7819 18.3523 11.7673 13.8436C11.7673 12.5132 12.0746 11.2715 12.6162 10.1776L23.5932 21.2644Z" fill="black"/>
</svg>
