<svg width="40" height="25" viewBox="0 0 40 25" fill="none" xmlns="http://www.w3.org/2000/svg">
<path fill-rule="evenodd" clip-rule="evenodd" d="M40 12.5C40 15.4755 31.8332 25 20.0074 25C8.32784 25 0 15.4755 0 12.5C0 9.50994 8.3425 0 20.0074 0C31.8185 0 40 9.50994 40 12.5ZM2.5613 12.5C2.5613 14.5566 10.3622 22.6955 20.0074 22.6955C29.6085 22.6955 37.4387 14.5566 37.4387 12.5C37.4387 10.7643 29.6085 2.30457 20.0074 2.30457C10.3622 2.30457 2.5613 10.7643 2.5613 12.5ZM20.0074 20.668C24.5591 20.668 28.2183 16.9487 28.2183 12.5C28.2183 7.93465 24.5591 4.33199 20.0074 4.33199C15.4263 4.33199 11.7527 7.93465 11.7673 12.5C11.7966 16.9487 15.4263 20.668 20.0074 20.668ZM17.2558 12.5C17.2558 13.9878 18.4852 15.213 20.0074 15.213C21.5149 15.213 22.7443 13.9878 22.7443 12.5C22.7443 10.9977 21.5149 9.78706 20.0074 9.78706C18.4852 9.78706 17.2558 10.9977 17.2558 12.5Z" fill="black"/>
</svg>
