<svg version="1.2" xmlns="http://www.w3.org/2000/svg" xmlns:xlink="http://www.w3.org/1999/xlink" overflow="visible" preserveAspectRatio="none" viewBox="0 0 1012 1012" id="all-_accounts_1650040417876" width="20" height="20"><g transform="translate(1, 1)"><defs><style>.cls-1_1650040417876{fill-rule:evenodd;}</style></defs><title>bill</title><path d="M617.22,0h-449a55.85,55.85,0,0,0-56,55.74V954.26c0,30.77,25.3,55.74,56.5,55.74H841.28c31.25,0,56.5-25.08,56.5-56V280.56ZM818.43,280.56H617.22V79.35Zm-650.1,673.7V56.11H561.11V336.67H841.66q0,617.17-.38,617.22Q168.34,953.88,168.33,954.26Z" class="cls-1_1650040417876" vector-effect="non-scaling-stroke" style="fill: rgb(0, 106, 82);"/><path d="M538,621.8,520.09,614V516.35q36.54,3.23,73.56,19.86l17.21-49.1a233,233,0,0,0-90.77-22V420.83H488.73v45.08q-43.38,5.1-68.72,29t-25.35,60.9q0,34.62,17.8,58.09t56.47,40.39l19.8,8.31V762.93q-21.45-.27-48.56-7.91T392.78,736.1v56.62q37.49,19.32,96,20.39v56.61h31.36V811.5q47.14-5.91,72.14-31.13t25-64.12q0-31.39-17.21-53.13T538,621.8Zm-49.28-20.93q-21.92-9.93-30.29-20.12t-8.37-25.49q0-14.76,9.9-24.69t28.76-13.14Zm31.36,159.92v-85.6q22.39,9.4,31.94,19.46t9.55,25.62Q561.58,753.54,520.09,760.79Z" class="cls-1_1650040417876" vector-effect="non-scaling-stroke" style="fill: rgb(0, 106, 82);"/></g></svg>