<svg width="18" height="18" viewBox="0 0 24 24" fill="none" xmlns="http://www.w3.org/2000/svg">
<g clip-path="url(#clip0_101_50931)">
<path d="M14.0825 11.9996L18.7954 7.28704C19.0679 7.01449 19.0679 6.57219 18.7954 6.2992L17.7003 5.20417C17.4277 4.93162 16.9854 4.93162 16.7124 5.20417L11.9999 9.91721L7.28699 5.20461C7.01442 4.93205 6.5721 4.93205 6.29909 5.20461L5.20443 6.2992C4.93186 6.57175 4.93186 7.01405 5.20443 7.28704L9.91733 11.9996L5.20443 16.7122C4.93186 16.9848 4.93186 17.4271 5.20443 17.7001L6.29953 18.7951C6.5721 19.0677 7.01442 19.0677 7.28743 18.7951L11.9999 14.0821L16.7128 18.7947C16.9854 19.0672 17.4277 19.0672 17.7007 18.7947L18.7958 17.6997C19.0684 17.4271 19.0684 16.9848 18.7958 16.7118L14.0825 11.9996Z" fill="#2E3B45"/>
</g>
<defs>
<clipPath id="clip0_101_50931">
<rect width="14" height="14" fill="white" transform="translate(5 5)"/>
</clipPath>
</defs>
</svg>
