<svg version="1.2" xmlns="http://www.w3.org/2000/svg" xmlns:xlink="http://www.w3.org/1999/xlink" overflow="visible" preserveAspectRatio="none" viewBox="0 0 16.000000000000057 15.999999999999911" width="16.000000000000057" height="15.999999999999911"><g transform="translate(0, 0)"><g transform="translate(0, 0) rotate(0)"><path d="M4.97778,2.05128h10.66667c0.21333,0 0.35556,-0.1641 0.35556,-0.41026c0,-0.24615 -0.14222,-0.41026 -0.35556,-0.41026h-10.66667c-0.21333,0 -0.35556,0.1641 -0.35556,0.41026c0,0.24615 0.14222,0.41026 0.35556,0.41026zM2.13333,0h-1.06667c-0.60444,0 -1.06667,0.53333 -1.06667,1.23077v1.23077c0,0.69744 0.46222,1.23077 1.06667,1.23077h1.06667c0.60444,0 1.06667,-0.53333 1.06667,-1.23077v-1.23077c0,-0.69744 -0.46222,-1.23077 -1.06667,-1.23077zM2.48889,2.46154c0,0.24615 -0.14222,0.41026 -0.35556,0.41026h-1.06667c-0.21333,0 -0.35556,-0.1641 -0.35556,-0.41026v-1.23077c0,-0.24615 0.14222,-0.41026 0.35556,-0.41026h1.06667c0.21333,0 0.35556,0.1641 0.35556,0.41026zM15.64444,7.38462h-10.66667c-0.21333,0 -0.35556,0.1641 -0.35556,0.41026c0,0.24615 0.14222,0.41026 0.35556,0.41026h10.66667c0.21333,0 0.35556,-0.1641 0.35556,-0.41026c0,-0.24615 -0.14222,-0.41026 -0.35556,-0.41026zM2.13333,6.15385h-1.06667c-0.60444,0 -1.06667,0.53333 -1.06667,1.23077v1.23077c0,0.69744 0.46222,1.23077 1.06667,1.23077h1.06667c0.60444,0 1.06667,-0.53333 1.06667,-1.23077v-1.23077c0,-0.69744 -0.46222,-1.23077 -1.06667,-1.23077zM2.48889,8.61538c0,0.24615 -0.14222,0.41026 -0.35556,0.41026h-1.06667c-0.21333,0 -0.35556,-0.1641 -0.35556,-0.41026v-1.23077c0,-0.24615 0.14222,-0.41026 0.35556,-0.41026h1.06667c0.21333,0 0.35556,0.1641 0.35556,0.41026zM15.64444,13.53846h-10.66667c-0.21333,0 -0.35556,0.1641 -0.35556,0.41026c0,0.24615 0.14222,0.41026 0.35556,0.41026h10.66667c0.21333,0 0.35556,-0.1641 0.35556,-0.41026c0,-0.24615 -0.14222,-0.41026 -0.35556,-0.41026zM2.13333,12.30769h-1.06667c-0.60444,0 -1.06667,0.53333 -1.06667,1.23077v1.23077c0,0.69744 0.46222,1.23077 1.06667,1.23077h1.06667c0.60444,0 1.06667,-0.53333 1.06667,-1.23077v-1.23077c0,-0.69744 -0.46222,-1.23077 -1.06667,-1.23077zM2.48889,14.76923c0,0.24615 -0.14222,0.41026 -0.35556,0.41026h-1.06667c-0.21333,0 -0.35556,-0.1641 -0.35556,-0.41026v-1.23077c0,-0.24615 0.14222,-0.41026 0.35556,-0.41026h1.06667c0.21333,0 0.35556,0.1641 0.35556,0.41026z" style="stroke-width: 0; stroke-linecap: butt; stroke-linejoin: miter; fill: rgb(0, 106, 82);" vector-effect="non-scaling-stroke"/></g><defs><path id="path-165459584479686849" d="M4.97778,2.05128h10.66667c0.21333,0 0.35556,-0.1641 0.35556,-0.41026c0,-0.24615 -0.14222,-0.41026 -0.35556,-0.41026h-10.66667c-0.21333,0 -0.35556,0.1641 -0.35556,0.41026c0,0.24615 0.14222,0.41026 0.35556,0.41026zM2.13333,0h-1.06667c-0.60444,0 -1.06667,0.53333 -1.06667,1.23077v1.23077c0,0.69744 0.46222,1.23077 1.06667,1.23077h1.06667c0.60444,0 1.06667,-0.53333 1.06667,-1.23077v-1.23077c0,-0.69744 -0.46222,-1.23077 -1.06667,-1.23077zM2.48889,2.46154c0,0.24615 -0.14222,0.41026 -0.35556,0.41026h-1.06667c-0.21333,0 -0.35556,-0.1641 -0.35556,-0.41026v-1.23077c0,-0.24615 0.14222,-0.41026 0.35556,-0.41026h1.06667c0.21333,0 0.35556,0.1641 0.35556,0.41026zM15.64444,7.38462h-10.66667c-0.21333,0 -0.35556,0.1641 -0.35556,0.41026c0,0.24615 0.14222,0.41026 0.35556,0.41026h10.66667c0.21333,0 0.35556,-0.1641 0.35556,-0.41026c0,-0.24615 -0.14222,-0.41026 -0.35556,-0.41026zM2.13333,6.15385h-1.06667c-0.60444,0 -1.06667,0.53333 -1.06667,1.23077v1.23077c0,0.69744 0.46222,1.23077 1.06667,1.23077h1.06667c0.60444,0 1.06667,-0.53333 1.06667,-1.23077v-1.23077c0,-0.69744 -0.46222,-1.23077 -1.06667,-1.23077zM2.48889,8.61538c0,0.24615 -0.14222,0.41026 -0.35556,0.41026h-1.06667c-0.21333,0 -0.35556,-0.1641 -0.35556,-0.41026v-1.23077c0,-0.24615 0.14222,-0.41026 0.35556,-0.41026h1.06667c0.21333,0 0.35556,0.1641 0.35556,0.41026zM15.64444,13.53846h-10.66667c-0.21333,0 -0.35556,0.1641 -0.35556,0.41026c0,0.24615 0.14222,0.41026 0.35556,0.41026h10.66667c0.21333,0 0.35556,-0.1641 0.35556,-0.41026c0,-0.24615 -0.14222,-0.41026 -0.35556,-0.41026zM2.13333,12.30769h-1.06667c-0.60444,0 -1.06667,0.53333 -1.06667,1.23077v1.23077c0,0.69744 0.46222,1.23077 1.06667,1.23077h1.06667c0.60444,0 1.06667,-0.53333 1.06667,-1.23077v-1.23077c0,-0.69744 -0.46222,-1.23077 -1.06667,-1.23077zM2.48889,14.76923c0,0.24615 -0.14222,0.41026 -0.35556,0.41026h-1.06667c-0.21333,0 -0.35556,-0.1641 -0.35556,-0.41026v-1.23077c0,-0.24615 0.14222,-0.41026 0.35556,-0.41026h1.06667c0.21333,0 0.35556,0.1641 0.35556,0.41026z" vector-effect="non-scaling-stroke"/></defs></g></svg>