<svg version="1.2" xmlns="http://www.w3.org/2000/svg" xmlns:xlink="http://www.w3.org/1999/xlink" overflow="visible" preserveAspectRatio="none" viewBox="0 0 20 16" width="20" height="16"><g transform="translate(0, 0)"><title>Shape65DCDE3F-25B5-4A7B-B249-8E1452160006</title><desc>Created with Sketch.</desc><defs/><g id="Page-1" stroke="none" stroke-width="1" fill="none" fill-rule="evenodd"><g id="Icon_Index_Web" transform="translate(-401.000000, -5030.999996)" fill="#000000" fill-rule="nonzero"><g id="payment-center" transform="translate(401.000000, 5031.000000)"><path d="M19,5.26732673 L19,1.99405941 C18.9984701,0.892090547 18.1045441,-0.000328899091 17.0025743,-3.75924064e-15 L1.99742574,-3.75924064e-15 C1.46795313,-0.000999215787 0.959829843,0.208660043 0.585119881,0.582738492 C0.210409919,0.956816941 -0.000106122745,1.46458587 -4.01032025e-10,1.99405941 L-4.01032025e-10,14.0059406 C0.00152985719,15.1079095 0.89545587,16.0003289 1.99742574,16 L17.0025743,16 C17.5320469,16.0009992 18.0401702,15.79134 18.4148801,15.4172615 C18.7895901,15.0431831 19.0001061,14.5354141 19,14.0059406 L19,10.7326733 C19.6187723,10.375944 20.0000352,9.71601952 20,9.00178218 L20,6.99782178 C19.9994445,6.28384648 19.6183211,5.62431427 19,5.26732673 Z M18,14.0059406 C18.0001072,14.2701983 17.8949481,14.5236142 17.7077741,14.7101566 C17.5206001,14.8966989 17.2668301,15.0010006 17.0025743,15 L1.99742574,15 C1.44773979,15.0003297 1.00152863,14.5556245 1,14.0059406 L1,1.99405941 C0.999892781,1.7298017 1.10505185,1.47638575 1.29222588,1.28984345 C1.4793999,1.10330114 1.73316991,0.998999401 1.99742574,1 L17.0025743,1 C17.5522602,0.99967029 17.9984714,1.44437548 18,1.99405941 L18,5 L12.9974257,5 C11.894395,5.00065563 11.000437,5.89479095 11,6.99782178 L11,9.00217822 C11.0012001,10.1048927 11.8947115,10.9985813 12.9974257,11 L18,11 L18,14.0059406 Z M19,9.00217822 C18.9995635,9.55292449 18.5533203,9.99934491 18.0025743,10 L12.9974257,10 C12.4469956,9.99858435 12.0011971,9.55260883 12,9.00217822 L12,6.99782178 C12.0004365,6.44707551 12.4466797,6.00065509 12.9974257,6 L18.0025743,6 C18.5530044,6.00141565 18.9988029,6.44739117 19,6.99782178 L19,9.00217822 Z M13.980198,8.01980198 C13.980198,8.29594436 13.7563404,8.51980198 13.480198,8.51980198 C13.2040556,8.51980198 12.980198,8.29594436 12.980198,8.01980198 C12.980198,7.74365961 13.2040556,7.51980198 13.480198,7.51980198 C13.7563404,7.51980198 13.980198,7.74365961 13.980198,8.01980198 Z" id="Shape" style="fill: rgb(93, 93, 93); stroke-width: 0px;" vector-effect="non-scaling-stroke"/></g></g></g></g></svg>