<svg version="1.2" xmlns="http://www.w3.org/2000/svg" xmlns:xlink="http://www.w3.org/1999/xlink" overflow="visible" preserveAspectRatio="none" viewBox="0 0 25 20" width="20" height="16"><g transform="translate(0, 0)"><title>Shape6A15C132-C05D-4F0D-976D-3ADF7842E04E</title><desc>Created with Sketch.</desc><defs/><g id="ICONS" stroke="none" stroke-width="1" fill="none" fill-rule="evenodd"><g id="Small-Icons" transform="translate(-411.000000, -2278.393263)" fill="#000000" fill-rule="nonzero"><g id="account" transform="translate(411.000000, 2278.393265)"><path d="M22.5113861,2.5 L17.5,2.5 L17.5,1.24876238 C17.5013187,0.917596656 17.3705168,0.599578124 17.1365779,0.365174543 C16.9026389,0.130770962 16.5848806,-0.000661667177 16.2537129,4.52003632e-15 L8.74628713,4.52003632e-15 C8.05854027,0.00366455187 7.50229997,0.561009602 7.5,1.24876238 L7.5,2.5 L2.48861386,2.5 C1.12277228,2.5 0,3.62252475 0,5.00742574 L0,17.4925743 C0,18.8787129 1.11386139,20 2.48861386,20 L22.5113861,20 C23.8772277,20 25,18.8774752 25,17.4925743 L25,5.00742574 C25,3.62128713 23.8861386,2.5 22.5113861,2.5 Z M8.74628713,1.25 L16.25,1.25 L16.25,2.5 L8.75,2.5 C8.75,2.5 8.75024752,1.24975248 8.74628713,1.25 Z M23.75,17.4925743 C23.75,18.1856436 23.1886139,18.75 22.5123762,18.75 L2.48861386,18.75 C1.80618812,18.75 1.2509901,18.1898515 1.2509901,17.4925743 L1.2509901,5.00742574 C1.2509901,4.31435644 1.81262376,3.75 2.48861386,3.75 L22.5113861,3.75 C23.1938119,3.75 23.7490099,4.31014851 23.7490099,5.00742574 L23.75,17.4925743 Z" id="Shape" style="fill: rgb(93, 93, 93); stroke-width: 0px;" vector-effect="non-scaling-stroke"/></g></g></g></g></svg>