<svg width="40" height="40" viewBox="0 0 40 40" fill="none" xmlns="http://www.w3.org/2000/svg">
<path fill-rule="evenodd" clip-rule="evenodd" d="M39.7425 20.0975C39.7425 30.8887 30.8075 39.8225 20.0175 39.8225H20.0187C9.2475 39.8225 0.293747 30.8875 0.293747 20.0975C0.293747 9.32625 9.2275 0.372498 19.9987 0.372498C30.7887 0.372498 39.7425 9.32625 39.7425 20.0975ZM9.90375 20.1362C9.90375 21.2187 10.6962 21.8187 11.8375 21.8187H28.1775C29.3187 21.8187 30.0925 21.2187 30.0925 20.1362C30.0925 19.0337 29.3575 18.415 28.1775 18.415H11.8375C10.6575 18.415 9.90375 19.0337 9.90375 20.1362Z" fill="#006A52"/>
<mask id="mask0_59_1319" style="mask-type:alpha" maskUnits="userSpaceOnUse" x="0" y="0" width="40" height="40">
<path fill-rule="evenodd" clip-rule="evenodd" d="M39.7425 20.0975C39.7425 30.8887 30.8075 39.8225 20.0175 39.8225H20.0187C9.2475 39.8225 0.293747 30.8875 0.293747 20.0975C0.293747 9.32625 9.2275 0.372498 19.9987 0.372498C30.7887 0.372498 39.7425 9.32625 39.7425 20.0975ZM9.90375 20.1362C9.90375 21.2187 10.6962 21.8187 11.8375 21.8187H28.1775C29.3187 21.8187 30.0925 21.2187 30.0925 20.1362C30.0925 19.0337 29.3575 18.415 28.1775 18.415H11.8375C10.6575 18.415 9.90375 19.0337 9.90375 20.1362Z" fill="white"/>
</mask>
<g mask="url(#mask0_59_1319)">
</g>
</svg>
