<svg version="1.2" xmlns="http://www.w3.org/2000/svg" xmlns:xlink="http://www.w3.org/1999/xlink" overflow="visible" preserveAspectRatio="none" viewBox="0 0 1012 1012" id="all-_accounts_1650040417879" width="18" height="18"><g transform="translate(1, 1)"><title>payment-center</title><path d="M959.5,367V201.7A100.84,100.84,0,0,0,858.63,101H100.87A100.67,100.67,0,0,0,0,201.7V808.3A100.84,100.84,0,0,0,100.87,909H858.63A100.67,100.67,0,0,0,959.5,808.3V643a100.89,100.89,0,0,0,50.5-87.41V454.39A101,101,0,0,0,959.5,367ZM909,808.3a50.17,50.17,0,0,1-50.37,50.2H100.87A50.35,50.35,0,0,1,50.5,808.3V201.7a50.17,50.17,0,0,1,50.37-50.2H858.63A50.35,50.35,0,0,1,909,201.7V353.5H656.37A100.93,100.93,0,0,0,555.5,454.39V555.61A101,101,0,0,0,656.37,656.5H909Zm50.5-252.69A50.43,50.43,0,0,1,909.13,606H656.37A50.5,50.5,0,0,1,606,555.61V454.39A50.43,50.43,0,0,1,656.37,404H909.13a50.5,50.5,0,0,1,50.37,50.39ZM706,506a25.25,25.25,0,1,1-25.25-25.25A25.25,25.25,0,0,1,706,506Z" vector-effect="non-scaling-stroke" style="fill: rgb(0, 106, 82);"/></g></svg>