<svg version="1.2" xmlns="http://www.w3.org/2000/svg" xmlns:xlink="http://www.w3.org/1999/xlink" overflow="visible" preserveAspectRatio="none" viewBox="0 0 1012 1012" width="18" height="18"><g transform="translate(1, 1)"><title>list-view</title><g id="Layer_7_1650040417878"><path d="M983.42,797.37H239.21a26.58,26.58,0,0,0,0,53.16H983.42a26.58,26.58,0,1,0,0-53.16Z" vector-effect="non-scaling-stroke" style="fill: rgb(0, 106, 82);"/><path d="M983.42,584.74H239.21a26.58,26.58,0,0,0,0,53.16H983.42a26.58,26.58,0,1,0,0-53.16Z" vector-effect="non-scaling-stroke" style="fill: rgb(0, 106, 82);"/><path d="M983.42,372.11H239.21a26.58,26.58,0,1,0,0,53.15H983.42a26.58,26.58,0,1,0,0-53.15Z" vector-effect="non-scaling-stroke" style="fill: rgb(0, 106, 82);"/><path d="M239.21,212.63H983.42a26.58,26.58,0,1,0,0-53.16H239.21a26.58,26.58,0,0,0,0,53.16Z" vector-effect="non-scaling-stroke" style="fill: rgb(0, 106, 82);"/><path d="M79.74,159.47H26.58a26.58,26.58,0,0,0,0,53.16H79.74a26.58,26.58,0,1,0,0-53.16Z" vector-effect="non-scaling-stroke" style="fill: rgb(0, 106, 82);"/><path d="M79.74,372.11H26.58a26.58,26.58,0,1,0,0,53.15H79.74a26.58,26.58,0,1,0,0-53.15Z" vector-effect="non-scaling-stroke" style="fill: rgb(0, 106, 82);"/><path d="M79.74,584.74H26.58a26.58,26.58,0,0,0,0,53.16H79.74a26.58,26.58,0,1,0,0-53.16Z" vector-effect="non-scaling-stroke" style="fill: rgb(0, 106, 82);"/><path d="M79.74,797.37H26.58a26.58,26.58,0,1,0,0,53.16H79.74a26.58,26.58,0,1,0,0-53.16Z" vector-effect="non-scaling-stroke" style="fill: rgb(0, 106, 82);"/></g></g></svg>