<svg version="1.2" xmlns="http://www.w3.org/2000/svg" xmlns:xlink="http://www.w3.org/1999/xlink" overflow="visible" preserveAspectRatio="none" viewBox="0 0 16.091929999999998 12.000065013429094" width="16.091929999999998" height="12.000065013429094"><g transform="translate(0, 0)"><defs><path id="path-165423753720396385" d="M9.51159 17.7646 C9.51159 17.7646 4.28162 12.5346 4.28162 12.5346 C3.96732 12.2203 3.96732 11.7109 4.28162 11.3969 C4.28162 11.3969 5.41939 10.2591 5.41939 10.2591 C5.73369 9.94479 6.24317 9.94479 6.55716 10.2591 C6.55716 10.2591 10.0805 13.7818 10.0805 13.7818 C10.0805 13.7818 17.6265 6.23573 17.6265 6.23573 C17.9408 5.92142 18.4503 5.92142 18.7643 6.23573 C18.7643 6.23573 19.9021 7.3735 19.9021 7.3735 C20.2164 7.6878 20.2164 8.19728 19.9021 8.51127 C19.9021 8.51127 10.649 17.7643 10.649 17.7643 C10.3351 18.0786 9.82557 18.0786 9.51159 17.7646 Z" vector-effect="non-scaling-stroke"/></defs><g transform="translate(-4.045895, -5.999997499999999)"><path d="M9.51159 17.7646 C9.51159 17.7646 4.28162 12.5346 4.28162 12.5346 C3.96732 12.2203 3.96732 11.7109 4.28162 11.3969 C4.28162 11.3969 5.41939 10.2591 5.41939 10.2591 C5.73369 9.94479 6.24317 9.94479 6.55716 10.2591 C6.55716 10.2591 10.0805 13.7818 10.0805 13.7818 C10.0805 13.7818 17.6265 6.23573 17.6265 6.23573 C17.9408 5.92142 18.4503 5.92142 18.7643 6.23573 C18.7643 6.23573 19.9021 7.3735 19.9021 7.3735 C20.2164 7.6878 20.2164 8.19728 19.9021 8.51127 C19.9021 8.51127 10.649 17.7643 10.649 17.7643 C10.3351 18.0786 9.82557 18.0786 9.51159 17.7646 Z" style="stroke-width: 0; stroke-linecap: butt; stroke-linejoin: miter; fill: rgb(0, 106, 82);" vector-effect="non-scaling-stroke"/></g></g></svg>