<svg version="1.2" xmlns="http://www.w3.org/2000/svg" xmlns:xlink="http://www.w3.org/1999/xlink" overflow="visible" preserveAspectRatio="none" viewBox="0 0 26 26" fill="none" height="16" width="16"><g transform="translate(1, 1)"><path fill="white" d="M12 2C6.47254 2 2 6.47293 2 12C2 17.5275 6.47293 22 12 22C17.5275 22 22 17.5271 22 12C22 6.47254 17.527 2 12 2ZM12 20.4375C7.33621 20.4375 3.5625 16.6635 3.5625 12C3.5625 7.33621 7.33652 3.5625 12 3.5625C16.6638 3.5625 20.4375 7.33652 20.4375 12C20.4375 16.6638 16.6634 20.4375 12 20.4375Z" vector-effect="non-scaling-stroke" style="fill: rgb(132, 189, 0);"/><path fill="white" d="M12 10.3721C11.5685 10.3721 11.2188 10.7218 11.2188 11.1533V16.1843C11.2188 16.6158 11.5685 16.9656 12 16.9656C12.4315 16.9656 12.7812 16.6157 12.7812 16.1843V11.1533C12.7812 10.7218 12.4315 10.3721 12 10.3721Z" vector-effect="non-scaling-stroke" style="fill: rgb(132, 189, 0);"/><path fill="white" d="M12 9.41553C12.5825 9.41553 13.0547 8.94333 13.0547 8.36084C13.0547 7.77835 12.5825 7.30615 12 7.30615C11.4175 7.30615 10.9453 7.77835 10.9453 8.36084C10.9453 8.94333 11.4175 9.41553 12 9.41553Z" vector-effect="non-scaling-stroke" style="fill: rgb(132, 189, 0);"/></g></svg>