<svg version="1.2" xmlns="http://www.w3.org/2000/svg" xmlns:xlink="http://www.w3.org/1999/xlink" overflow="visible" preserveAspectRatio="none" viewBox="0 0 26 26" fill="none" height="16" width="16"><g transform="translate(1, 1)"><path fill="#84BD00" d="M5.04325 14.5762C4.90617 14.5762 4.76909 14.5762 4.64572 14.5762H4.23448C3.74099 14.5762 3.22009 14.5762 2.65806 14.5232L2.34277 14.4967L2.35648 14.0464V14.0331C2.49356 12.9735 3.37088 12.9735 3.65874 12.9735C3.7547 12.9735 3.87807 12.9735 4.01515 12.9868C4.19336 13 4.38527 13.0132 4.6046 13.0132C4.79651 13.0132 5.00213 13.0132 5.19404 13H5.45449C5.61899 13 5.75607 12.8808 5.79719 12.7351H3.97403L4.01515 12.3775C4.01515 12.351 4.01515 12.3245 4.01515 12.3113C4.01515 12.2583 4.02886 12.2053 4.04257 12.1391C4.33044 11.2517 4.46752 11.1589 5.45449 11.1589C5.53674 11.1589 5.61899 11.1589 5.70124 11.1589C5.78349 11.1589 5.86573 11.1589 5.96169 11.1589C6.07135 11.1589 6.18102 11.1589 6.27698 11.1589C6.68822 11.1722 7.03092 11.3179 7.25024 11.5828C7.46957 11.8344 7.55182 12.1656 7.49699 12.5497C7.31878 13.7152 6.24956 14.5894 5.02955 14.5894L5.04325 14.5762Z" vector-effect="non-scaling-stroke" style="fill: rgb(154, 154, 154);"/><path fill="white" d="M5.97533 11.4635C6.08499 11.4635 6.18095 11.4635 6.29061 11.4635C6.93489 11.49 7.2913 11.8873 7.19534 12.4833C7.03084 13.49 6.13982 14.2582 5.05689 14.2582C5.04318 14.2582 5.04318 14.2582 5.02947 14.2582C4.89239 14.2582 4.75531 14.2582 4.63194 14.2582C4.49486 14.2582 4.35778 14.2582 4.2207 14.2582C3.7135 14.2582 3.22001 14.2582 2.67169 14.2052V14.0727C2.75394 13.4237 3.15147 13.2913 3.64496 13.2913C3.75463 13.2913 3.86429 13.2913 3.97395 13.3045C4.17957 13.3178 4.3852 13.331 4.59082 13.331C4.87868 13.331 5.16655 13.3178 5.45442 13.3178C5.82454 13.3045 6.12611 13.0264 6.12611 12.682C6.12611 12.4436 5.96162 12.4171 5.76971 12.4171C5.56409 12.4171 5.37217 12.4171 5.16655 12.4171C4.89239 12.4171 4.61823 12.4171 4.33036 12.4171C4.34407 12.3244 4.34407 12.2847 4.35778 12.2317C4.60452 11.4767 4.60452 11.4635 5.44071 11.4635C5.45442 11.4635 5.45442 11.4635 5.46813 11.4635C5.64633 11.4635 5.81083 11.4635 5.97533 11.4635ZM5.97533 10.8277C5.89308 10.8277 5.79712 10.8277 5.71487 10.8277C5.63263 10.8277 5.55038 10.8277 5.46813 10.8277H5.45442H5.44071C4.96093 10.8277 4.60452 10.8277 4.28924 11.0529C3.98766 11.278 3.878 11.5827 3.72721 12.033C3.69979 12.1257 3.68609 12.2052 3.68609 12.2714C3.68609 12.2847 3.68609 12.3111 3.68609 12.3376L3.64496 12.6555C3.3708 12.6555 2.97327 12.682 2.61686 12.9204C2.27416 13.1456 2.06854 13.5164 2.01371 14.0065V14.033V14.0595V14.1919L2 14.788L2.61686 14.8409C3.20631 14.8939 3.72721 14.8939 4.2207 14.8939H4.42632H4.63194C4.75531 14.8939 4.89239 14.8939 5.02947 14.8939H5.05689C6.4414 14.8939 7.634 13.9005 7.83962 12.576C7.90816 12.1125 7.79849 11.6754 7.52433 11.3575C7.25017 11.0264 6.81151 10.8409 6.30432 10.8145C6.22207 10.8277 6.11241 10.8277 5.97533 10.8277Z" vector-effect="non-scaling-stroke" style="fill: rgb(154, 154, 154);"/><path fill="#84BD00" d="M15.4473 14.5761C13.6927 14.5761 11.7872 14.5761 9.85441 14.5629C9.36092 14.5629 9.08676 14.3642 9.01822 13.9933C8.9771 13.7814 9.05935 13.5562 9.23755 13.3443C9.38834 13.1721 9.64879 12.9867 9.93666 12.9734H10.06C10.2519 12.9734 10.4302 12.9734 10.6221 12.9734C10.814 12.9734 10.9922 12.9734 11.143 12.9867H11.1704C11.3075 12.9867 11.3897 12.9602 11.4583 12.7218C11.3486 12.7218 11.2252 12.7218 11.1156 12.7218H10.1286L10.2108 12.3377C10.3616 11.6754 10.6221 11.0662 11.4994 11.0662C11.705 11.0662 11.9654 11.0927 12.2807 11.1721C12.5001 11.2251 12.8153 11.3178 12.9936 11.6092C13.1992 11.9271 13.1718 12.3642 13.0347 12.9867H14.1861C14.6659 12.9867 15.1457 12.9867 15.6255 12.9867C15.6529 12.9867 15.7077 12.9867 15.7626 12.8675C15.8037 12.8013 15.8311 12.7218 15.8585 12.6291L15.8859 12.5496C16.119 11.9536 16.2561 11.6092 16.8866 11.6092C17.0511 11.6092 17.2293 11.6225 17.5035 11.6622L17.9284 11.7019L17.7776 12.086C17.7365 12.192 17.6954 12.298 17.6543 12.4039C17.5857 12.6026 17.5035 12.8013 17.4212 13.0132C17.668 12.9999 17.7228 12.9205 17.7776 12.735C17.8051 12.6291 17.8462 12.5231 17.8873 12.4304C17.901 12.3907 17.9147 12.3509 17.9421 12.3112C18.1341 11.8344 18.4905 11.5695 18.9565 11.5695C19.0799 11.5695 19.217 11.5827 19.3541 11.6225C19.5323 11.6622 19.6419 11.7549 19.6968 11.8874C19.779 12.0728 19.6831 12.2317 19.6419 12.298C19.6419 12.3112 19.6282 12.3112 19.6282 12.3244C19.546 12.5496 19.4637 12.7748 19.3815 12.9999C19.3952 12.9999 19.3952 12.9999 19.4089 12.9999C19.6008 12.9999 19.6145 12.9999 19.8064 12.5099C20.0258 11.9536 20.1766 11.5827 20.7523 11.5827C20.8757 11.5827 21.0127 11.596 21.1772 11.6225C21.2595 11.6357 21.4514 11.6489 21.5611 11.8079C21.6844 11.9668 21.6433 12.139 21.6159 12.2185C21.2732 13.8344 20.2999 14.5893 18.559 14.5893L15.4473 14.5761Z" vector-effect="non-scaling-stroke" style="fill: rgb(154, 154, 154);"/><path fill="white" d="M11.5135 11.3841C11.7054 11.3841 11.9385 11.4238 12.2263 11.4768C12.8843 11.6225 12.9803 12.0066 12.6376 13.2913C13.1722 13.2913 13.6931 13.2913 14.2277 13.2913C14.7075 13.2913 15.1873 13.2913 15.6533 13.2913C15.8727 13.2913 16.0097 13.1589 16.092 12.9867C16.1468 12.8807 16.1879 12.7615 16.2291 12.6423C16.4621 12.0595 16.5169 11.9006 16.9145 11.9006C17.0515 11.9006 17.2435 11.9139 17.4902 11.9403C17.3531 12.298 17.2297 12.6556 17.079 12.9999C16.9693 13.2384 17.0652 13.2781 17.2983 13.2913C17.3394 13.2913 17.3668 13.2913 17.408 13.2913C17.7781 13.2913 18.0248 13.1589 18.1208 12.7748C18.1619 12.6423 18.2167 12.5231 18.2716 12.3907C18.4086 12.0331 18.6554 11.8476 18.9844 11.8476C19.0803 11.8476 19.1763 11.8609 19.2859 11.8874C19.519 11.9536 19.3819 12.0728 19.3545 12.1655C19.2311 12.5231 19.094 12.8675 18.957 13.2384C19.1626 13.2648 19.3134 13.2781 19.4504 13.2781C19.848 13.2781 19.9439 13.1192 20.1633 12.5894C20.3963 12.0066 20.4648 11.8609 20.8075 11.8609C20.9035 11.8609 21.0269 11.8741 21.1914 11.8874C21.3696 11.9139 21.397 11.9536 21.3559 12.1125C21.0406 13.5827 20.2044 14.2317 18.6143 14.2317C17.5724 14.2317 16.5306 14.2317 15.4751 14.2317C13.6108 14.2317 11.7465 14.2317 9.88225 14.2185C9.71775 14.2185 9.42988 14.2185 9.37505 13.9139C9.32022 13.6092 9.71775 13.2781 9.9645 13.2781C10.1975 13.2781 10.4169 13.2648 10.6499 13.2648C10.8144 13.2648 10.9926 13.2648 11.1571 13.2781C11.1708 13.2781 11.1845 13.2781 11.1982 13.2781C11.6369 13.2781 11.7602 12.9735 11.8425 12.6556C11.8973 12.4304 11.7054 12.3774 11.5135 12.3774C11.3901 12.3774 11.253 12.3774 11.1297 12.3774C10.9378 12.3774 10.7459 12.3774 10.5539 12.3774C10.7047 11.6754 10.9378 11.3841 11.5135 11.3841ZM11.5135 10.7483C10.2387 10.7483 10.0056 11.8079 9.89596 12.2715L9.8 12.6821C9.4573 12.735 9.15572 12.947 8.99123 13.1456C8.75819 13.4238 8.64853 13.7417 8.70336 14.0463C8.75819 14.4039 8.99123 14.6688 9.30651 14.8013C9.52584 14.8807 9.73146 14.894 9.85483 14.894C11.7877 14.9072 13.6931 14.9072 15.4477 14.9072H17.0104H18.5731C20.4785 14.9072 21.5752 14.0463 21.959 12.2847C21.9864 12.192 22.0413 11.8874 21.8356 11.6225C21.63 11.3576 21.3284 11.3178 21.2188 11.3046C21.0543 11.2781 20.9035 11.2648 20.7527 11.2648C20.3552 11.2648 20.0947 11.4105 19.9028 11.6225C19.8206 11.5033 19.6698 11.3841 19.423 11.3311C19.2585 11.2913 19.094 11.2648 18.9432 11.2648C18.6965 11.2648 18.4772 11.3178 18.2853 11.4238L17.5313 11.3443C17.2572 11.3178 17.0652 11.2913 16.887 11.2913C16.0234 11.2913 15.8178 11.8211 15.5848 12.4437L15.5574 12.5231C15.53 12.5761 15.5162 12.6291 15.5025 12.6821C15.0639 12.6821 14.6389 12.6821 14.2003 12.6821H13.4189C13.5012 12.1788 13.4737 11.7814 13.2544 11.4635C12.9803 11.0264 12.4868 10.9205 12.336 10.8807C12.0207 10.788 11.7465 10.7483 11.5135 10.7483Z" vector-effect="non-scaling-stroke" style="fill: rgb(154, 154, 154);"/><path fill="#84BD00" d="M7.89437 14.6821C7.72988 14.6821 7.5928 14.6291 7.48313 14.5364C7.15414 14.2318 7.30493 13.8344 7.38718 13.649C7.40088 13.6225 7.40088 13.6093 7.41459 13.596C7.60651 13.0662 7.81213 12.5364 8.01775 12.0066C8.2782 11.3311 8.53865 10.6424 8.78539 9.95363C8.94989 9.49006 9.18293 9.33112 9.73125 9.31787C9.77237 9.31787 9.78608 9.31787 9.8135 9.31787C9.97799 9.31787 10.2796 9.31787 10.4304 9.54304C10.5811 9.7682 10.4715 10.0331 10.4166 10.1788C10.0877 10.9867 9.78608 11.8079 9.4708 12.6026C9.33372 12.9603 9.19664 13.3179 9.05956 13.6755L9.03214 13.7417C8.97731 13.8742 8.93618 14.0066 8.85394 14.1523C8.68944 14.4305 8.25078 14.6821 7.89437 14.6821Z" vector-effect="non-scaling-stroke" style="fill: rgb(154, 154, 154);"/><path fill="white" d="M9.81314 9.63576C10.197 9.63576 10.2518 9.70199 10.1147 10.0596C9.64865 11.2252 9.20999 12.3907 8.75763 13.5563C8.70279 13.702 8.64796 13.8477 8.57942 13.9801C8.46976 14.1788 8.12706 14.3642 7.89402 14.3642C7.82548 14.3642 7.75694 14.351 7.70211 14.298C7.5102 14.1258 7.64728 13.8742 7.71582 13.702C8.16818 12.4834 8.64796 11.2781 9.10033 10.0596C9.2237 9.71523 9.33336 9.64901 9.7446 9.63576C9.77202 9.63576 9.78573 9.63576 9.81314 9.63576ZM9.81314 9C9.78573 9 9.75831 9 9.7309 9C9.16887 9.02649 8.73021 9.17219 8.48347 9.84768C8.23672 10.5232 7.96256 11.2252 7.71582 11.8874C7.5102 12.404 7.30458 12.947 7.11266 13.4768C7.11266 13.4901 7.09896 13.5166 7.09896 13.5298C7.01671 13.7285 6.78367 14.3113 7.27716 14.7616C7.44166 14.9073 7.66099 14.9868 7.90773 14.9868C8.38751 14.9868 8.93583 14.6821 9.16887 14.2848C9.26482 14.1258 9.31965 13.9669 9.37449 13.8344L9.4019 13.7815C9.53898 13.4238 9.67606 13.0662 9.81314 12.7086C10.1147 11.9139 10.43 11.0927 10.7453 10.2848C10.8138 10.1126 10.9783 9.71523 10.7179 9.35762C10.4437 9 10.0051 9 9.81314 9Z" vector-effect="non-scaling-stroke" style="fill: rgb(154, 154, 154);"/></g></svg>