<svg version="1.2" xmlns="http://www.w3.org/2000/svg" xmlns:xlink="http://www.w3.org/1999/xlink" overflow="visible" preserveAspectRatio="none" viewBox="0 0 26 26" fill="none" height="16" width="16"><g transform="translate(1, 1)"><path fill="#84BD00" d="M17.1422 16.2773C16.1216 13.8303 14.3008 11.7897 12 10.5051C9.69918 11.7897 7.88275 13.8259 6.85776 16.2729L6.15281 17.9595L5.63815 16.2073C5.1235 14.4508 4.32773 12.7991 3.26814 11.3003L3 10.9202L3.26814 10.54C3.93417 9.59623 4.69966 8.70921 5.53868 7.90958C7.35079 6.17925 9.45267 4.8815 11.7838 4.04691L12 3.96826L12.2162 4.04691C14.5517 4.8815 16.6492 6.17925 18.4613 7.90958C19.3003 8.70921 20.0615 9.59186 20.7319 10.54L21 10.9202L20.7319 11.3003C19.6723 12.7991 18.8765 14.4508 18.3618 16.2073L17.8472 17.9683L17.1422 16.2773Z" vector-effect="non-scaling-stroke" style="fill: rgb(154, 154, 154);"/><path fill="#006A52" d="M11.9215 4.41433C14.2475 5.23714 16.3513 6.54028 18.1081 8.20368C18.9398 8.98646 19.6914 9.85374 20.3585 10.7833C19.2422 12.3444 18.3794 14.0967 17.8234 15.9781C16.6626 13.225 14.5589 10.9701 11.9215 9.60468C9.28403 10.9656 7.18032 13.2206 6.0195 15.9736C5.46355 14.0923 4.60072 12.3444 3.48437 10.7833C4.15151 9.84929 4.90315 8.98646 5.73485 8.20368C7.4961 6.54028 9.59536 5.23714 11.9215 4.41433ZM11.9215 3L11.4767 3.15567C8.98604 4.03629 6.7489 5.40615 4.81865 7.22966C3.92468 8.0747 3.11077 9.0087 2.39916 10.005L1.84766 10.7833L2.39916 11.5572C3.44434 13.0249 4.23157 14.6349 4.73859 16.3517L5.79712 19.9275L7.24704 16.494C8.19437 14.2569 9.83998 12.3755 11.9215 11.1347C14.0074 12.3755 15.653 14.2613 16.5959 16.4984L18.0502 19.9409L19.1088 16.3606C19.6158 14.6438 20.403 13.0293 21.4482 11.5616L21.9997 10.7877L21.4482 10.0139C20.7366 9.01315 19.9182 8.07915 19.0287 7.23856C17.0985 5.41504 14.8569 4.04518 12.3707 3.16456L11.9215 3Z" vector-effect="non-scaling-stroke" style="fill: rgb(154, 154, 154);"/></g></svg>