<svg version="1.2" xmlns="http://www.w3.org/2000/svg" xmlns:xlink="http://www.w3.org/1999/xlink" overflow="visible" preserveAspectRatio="none" viewBox="0 0 48 48" width="18" height="18"><g>
	<g>
		<path class="st0" d="M33.9,12.7L24,22.6l-9.2-9.2l-1.4,1.4l9.2,9.2l-9.9,9.9l1.4,1.4l9.9-9.9l9.9,9.9l1.4-1.4L25.4,24l9.9-9.9    L33.9,12.7z M41,7C31.6-2.3,16.4-2.3,7,7S-2.3,31.6,7,41c9.4,9.4,24.6,9.4,33.9,0C50.3,31.6,50.3,16.4,41,7z M39.4,39.4    c-8.5,8.5-22.3,8.5-30.9,0c-8.5-8.5-8.5-22.3,0-30.9c8.5-8.5,22.3-8.5,30.9,0C47.9,17.1,47.9,30.9,39.4,39.4z" style="fill: rgb(199, 23, 32);" vector-effect="non-scaling-stroke"/>
	</g>
</g><g/></svg>