<svg version="1.2" xmlns="http://www.w3.org/2000/svg" xmlns:xlink="http://www.w3.org/1999/xlink" overflow="visible" preserveAspectRatio="none" viewBox="0 0 26 26" fill="none" height="24" width="24"><g transform="translate(1, 1)"><g clip-path="url(#clip0_101_50182_1650283725102)"><path fill="#84BD00" d="M8.18848 13.7553C10.7862 13.6121 13.1712 13.6121 15.7403 13.7553V11.8857C13.1589 12.0167 10.7698 12.0167 8.18848 11.8857V13.7553Z" vector-effect="non-scaling-stroke" style="fill: rgb(0, 106, 82);"/><path fill="#84BD00" d="M8.18848 17.081C10.7862 16.9378 13.1712 16.9378 15.7403 17.081V15.2114C13.1589 15.3423 10.7698 15.3423 8.18848 15.2114V17.081Z" vector-effect="non-scaling-stroke" style="fill: rgb(0, 106, 82);"/><path fill="#006A52" d="M18.9672 8.02364C16.9667 6.825 15.4122 5.27045 14.3485 3.40909L14.1113 3H7.09126C5.73717 3 4.63672 4.10045 4.63672 5.45455V18.5455C4.63672 19.8995 5.73308 21 7.08308 21H16.9094C18.2635 21 19.364 19.8995 19.364 18.5455V8.265L18.9672 8.02364ZM16.9094 19.3636H7.08308C6.63717 19.3636 6.27308 18.9955 6.27308 18.5455V5.45455C6.27308 5.00455 6.64126 4.63636 7.09126 4.63636H13.1254V9.67636H17.7276V18.5455C17.7276 18.9955 17.3594 19.3636 16.9094 19.3636Z" vector-effect="non-scaling-stroke" style="fill: rgb(0, 106, 82);"/></g><defs><clipPath id="clip0_101_50182_1650283725102" vector-effect="non-scaling-stroke" style="fill: rgb(0, 106, 82);"><rect transform="translate(4.63672 3)" fill="white" height="18" width="14.7273" vector-effect="non-scaling-stroke" style="fill: rgb(0, 106, 82);"/></clipPath></defs></g></svg>