<svg id="all-_accounts" data-name="all- accounts" xmlns="http://www.w3.org/2000/svg" viewBox="0 0 1010 1010"><defs><style>.cls-1{fill-rule:evenodd;}</style></defs><title>success</title><path class="cls-1" fill="#1ea630" d="M505,0C226.11,0,0,226.11,0,505s226.11,505,505,505,505-226.11,505-505S783.89,0,505,0Zm0,946.88C261,946.88,63.12,749,63.12,505S261,63.13,505,63.13,946.88,261,946.88,505,749,946.88,505,946.88Z"/><path class="cls-1" fill="#1ea630" d="M820.29,290.55a31.54,31.54,0,0,0-44.5,0L425.45,639.31,236.07,449.94a32.05,32.05,0,1,0-47,43.56L424.18,728.64,820.29,335.05A31.54,31.54,0,0,0,820.29,290.55Z"/></svg>